<?xml version="1.0" encoding="utf-8"?>
<!-- Generator: Adobe Illustrator 26.2.1, SVG Export Plug-In . SVG Version: 6.00 Build 0)  -->
<svg version="1.1" id="Layer_1" xmlns="http://www.w3.org/2000/svg" xmlns:xlink="http://www.w3.org/1999/xlink" x="0px" y="0px"
	 viewBox="0 0 714 714" style="enable-background:new 0 0 714 714;" xml:space="preserve">
<style type="text/css">
	.st0{fill:#1D1D1B;}
	.st1{fill:#B92C39;}
	.st2{fill:#F57665;}
	.st3{fill:#F8EBD6;}
	.st4{fill:#F4F4F4;}
	.st5{fill:#283037;}
	.st6{fill:#BE2E3F;}
	.st7{fill:#EDA058;}
	.st8{fill:#FCEBCA;}
	.st9{fill:#F8E9D3;}
	.st10{fill:#B03320;}
	.st11{fill:#46648C;}
	.st12{fill:#AACCE9;}
	.st13{fill:#DC8472;}
	.st14{fill:#73A5A6;}
	.st15{fill:#016460;}
</style>
<g>
	<path class="st0" d="M161.2761383,186.2030945c-0.5820312-1.2351379-1.2290802-2.4398804-1.9387207-3.6064453
		c-1.3817749-2.2714386-2.9974823-4.3791809-4.8361816-6.2993622c-0.1565094,0.4766388-0.3208771,0.951355-0.4529572,1.4361877
		c-0.3649139,1.3400421-0.6397552,2.7102356-0.7753906,4.0930786c-0.2451782,2.4994049-0.1285095,5.0051117,0.3289948,7.4676666
		c1.3416138-0.122879,2.6832275-0.2458496,4.0248566-0.3688202c0.8865967-0.0812225,1.7732849-0.1624603,2.6598816-0.2436829
		c0.406662-0.0373535,1.4428864,0.0232544,1.847229-0.2611694c0.0032196-0.1663666-0.0791626-0.3730469-0.1252899-0.5133209
		C161.8163757,187.322876,161.5376434,186.7581329,161.2761383,186.2030945z"/>
	<path class="st0" d="M367.0194397,182.7555542c0.3283081-0.1324005,0.4281006-0.4510345,0.5323486-0.7698364
		c0.4788818-1.4642639,0.6031494-3.1053009,0.6448059-4.6351318c0.0447998-1.6412964-0.0707092-3.2853241-0.3938293-4.8959808
		c-0.245575-1.2245178-0.5414429-2.7127838-1.5520935-3.5611267c-2.1377869-1.7945709-4.1923828,2.359787-5.1135864,3.7309723
		c-1.5135193,2.2525635-2.9125061,4.5774994-4.2505798,6.9376984c2.8102722,0.9728088,5.4946594,2.3130951,8.3935242,3.0200043
		C365.7659302,182.7006531,366.5291443,182.9532928,367.0194397,182.7555542z"/>
	<g>
		<path class="st0" d="M208.4889526,267.8457336c4.4258728,0,8.665863-3.8917847,8.4611969-8.4612122
			c-0.2053223-4.5842896-3.7177124-8.4611969-8.4611969-8.4611969c-4.4258575,0-8.665863,3.8917694-8.4611969,8.4611969
			C200.233078,263.968811,203.7454681,267.8457336,208.4889526,267.8457336L208.4889526,267.8457336z"/>
	</g>
	<g>
		<path class="st0" d="M301.8190918,267.8457336c4.4258728,0,8.665863-3.8917847,8.4612122-8.4612122
			c-0.2053223-4.5842896-3.7177124-8.4611969-8.4612122-8.4611969c-4.4258423,0-8.665863,3.8917694-8.4611816,8.4611969
			C293.5632324,263.968811,297.0756226,267.8457336,301.8190918,267.8457336L301.8190918,267.8457336z"/>
	</g>
	<circle class="st0" cx="257.1612854" cy="229.1703186" r="4.5331855"/>
	<circle class="st0" cx="457.8305664" cy="302.6073914" r="4.5331855"/>
	<circle class="st0" cx="516.7058105" cy="320.4797363" r="4.5331855"/>
	<circle class="st0" cx="519.449707" cy="402.7034607" r="4.5331855"/>
	<circle class="st0" cx="543.2393799" cy="360.2594299" r="2.1714141"/>
	<circle class="st0" cx="489.7476196" cy="357.6612854" r="2.1714141"/>
	<path class="st0" d="M562.6469727,365.4963379c-9.3897705-28.7037964-26.2713623-55.0723267-30.0957031-85.4714355
		c-3.9165039-31.130127,8.2436523-61.5841064,25.1795654-87.2235718c-2.1734619,0.8146973-4.3905029,1.5112305-6.65271,2.0596313
		c-17.3771973,4.2124023-35.4676514,1.1549683-52.9655762-0.5102539c-19.1563721-1.822937-38.3361816-1.0544434-57.159668,3.0979004
		c-8.8874512,1.9605713-17.7189941,4.5296631-26.1462402,7.9858398c-7.730957,3.1704712-15.2619629,7.3244019-21.28125,13.1938477
		c-11.8457031,11.5510254-14.8859863,28.5968628-11.7001953,44.3903198
		c7.0898438,35.1484985,40.3640137,55.6544189,65.2687988,77.8130493
		c13.0117188,11.5769043,24.7868652,24.6270142,31.9866943,40.6624756
		c6.9957275,15.5812378,9.9705811,32.7756348,9.5531006,49.8078003c-0.2104492,8.5912476-1.3427734,17.0987549-3.0662842,25.5109253
		c-1.380249,6.7363281-3.0830078,13.4413452-5.6907959,19.817688c-4.5496826,11.1248779-11.8116455,20.8192749-18.776001,30.5474243
		c-0.5006104,1.2639771-1.024292,2.5186157-1.5726318,3.7628174c-3.3508301,7.6025391-7.6623535,14.7723389-13.152832,21.0376587
		c-6.7663574,7.7211304-15.2714844,13.5957642-24.6484375,17.7098389
		c-8.1535645,3.5772705-16.7463379,5.9428101-25.4500732,7.7390137c-0.0584717,0.012085-0.1173096,0.0223389-0.1759033,0.0344238
		c2.4151611,0.7919922,4.8769531,1.4328003,7.3886719,1.8792725c16.8901367,3.0021973,34.2799072-1.7305298,50.2729492-6.8580322
		c15.4123535-4.9412842,31.0759277-10.0060425,45.4512939-17.5371704
		c14.0111084-7.3401489,25.8397217-17.4151611,34.6678467-30.5905762
		c8.6387939-12.8929443,14.4542236-27.4119873,19.5881348-41.9832153
		c5.7758789-16.3935547,11.9396973-33.1263428,14.3076172-50.4220581
		C569.9448242,396.1182251,567.5837402,380.5873413,562.6469727,365.4963379z M393.7570801,279.6920166
		c-3.2225342,0-3.2171631-5,0-5C396.9797363,274.6920166,396.9743652,279.6920166,393.7570801,279.6920166z
		 M394.7784424,269.1387939c-3.2225342,0-3.2172852-5,0-5C398.0009766,264.1387939,397.9957275,269.1387939,394.7784424,269.1387939
		z M399.2039795,257.5643311c-3.2225342,0-3.2172852-5,0-5
		C402.4265137,252.5643311,402.4212646,257.5643311,399.2039795,257.5643311z M411.4592285,252.4579468
		c-3.2225342,0-3.2172852-5,0-5C414.6818848,247.4579468,414.6765137,252.4579468,411.4592285,252.4579468z
		 M527.8847656,222.9473267c3.2226562,0,3.2172852,5,0,5C524.6622314,227.9473267,524.6674805,222.9473267,527.8847656,222.9473267z
		 M514.9487305,226.6920166c3.2225342,0,3.2171631,5,0,5C511.7260742,231.6920166,511.7314453,226.6920166,514.9487305,226.6920166z
		 M508.1401367,236.5643311c3.2226562,0,3.2172852,5,0,5C504.9174805,241.5643311,504.9228516,236.5643311,508.1401367,236.5643311z
		 M504.4302979,271.3356934c1.2139893-1.1717529,3.28479-0.9671021,4.6691895-0.0026245s2.2452393,2.4954834,3.0593262,3.9733276
		c0.0806885-1.6398926,0.8898926-3.7147827,1.6973877-5.1444092c0.807373-1.4295654,2.5541992-2.4727173,4.1027832-1.9275513
		c1.2595215,0.4433594,2.0234375,1.8408203,1.9853516,3.1754761c-0.0378418,1.3347168-0.7536621,2.5778809-1.6972656,3.5227051
		c-0.9436035,0.9447021-2.1065674,1.6343994-3.2558594,2.3138428c1.1296387,0.236084,2.2716064,0.4888306,3.298584,1.015564
		c1.0268555,0.5267944,1.9418945,1.3652954,2.3203125,2.4555664c0.3782959,1.0905151,0.1118164,2.4396973-0.809082,3.135376
		c-0.9277344,0.7009888-2.2758789,0.5930176-3.3016357,0.0455933s-1.8016357-1.4569702-2.552002-2.3452759
		c0.6834717,0.9759521,1.3839111,1.9915161,1.6013184,3.1629028c0.2174072,1.1714478-0.1888428,2.5476685-1.2501221,3.0891113
		c-1.1837158,0.6039429-2.7480469-0.1314697-3.314209-1.3338623c-0.5662842-1.2021484-0.2860107-2.6704102,0.4110107-3.8018799
		c-0.7415771,1.5096436-1.8443604,2.840271-3.1901855,3.848938c-0.9604492,0.7199097-2.300293,1.2758179-3.3206787,0.6442871
		c-1.1459961-0.7095337-1.0921631-2.4223633-0.5611572-3.6611328c0.9122314-2.1281128,2.8465576-3.7900391,5.0877686-4.37146
		c-1.7408447-0.6451416-3.5595703-1.3429565-4.7712402-2.7495728S503.0943604,272.625,504.4302979,271.3356934z
		 M500.6507568,245.7557983c3.2225342,0,3.2172852,5,0,5C497.4282227,250.7557983,497.4335938,245.7557983,500.6507568,245.7557983z
		 M489.416748,239.9685669c3.2226562,0,3.2172852,5,0,5C486.1940918,244.9685669,486.1994629,239.9685669,489.416748,239.9685669z
		 M465.5869141,230.7770996c3.2226562,0,3.2172852,5,0,5C462.3643799,235.7770996,462.3696289,230.7770996,465.5869141,230.7770996z
		 M457.0762939,238.6068726c3.2225342,0,3.2172852,5,0,5C453.8537598,243.6068726,453.8591309,238.6068726,457.0762939,238.6068726z
		 M450.2678223,249.1600952c3.2226562,0,3.2172852,5,0,5C447.045166,254.1600952,447.0505371,249.1600952,450.2678223,249.1600952z
		 M445.5018311,260.7345581c3.2225342,0,3.2172852,5,0,5C442.2792969,265.7345581,442.284668,260.7345581,445.5018311,260.7345581z
		 M423.3742676,256.5430298c-3.2226562,0-3.2172852-5,0-5C426.5968018,251.5430298,426.5914307,256.5430298,423.3742676,256.5430298
		z M434.6081543,260.6281738c-3.2225342,0-3.2171631-5,0-5
		C437.8308105,255.6281738,437.8254395,260.6281738,434.6081543,260.6281738z M473.0019531,313.8226318
		c-1.9367676,1.463501-4.7512207,1.2380981-6.8928223,0.0952148c-2.1414795-1.1428833-3.7613525-3.041687-5.3277588-4.8962402
		c1.4267578,2.0375366,2.8892822,4.1576538,3.3431396,6.6031494c0.4536133,2.4455566-0.3942871,5.3186035-2.6097412,6.4489746
		c-2.4713135,1.2609253-5.7373047-0.2744751-6.9193115-2.7845459c-1.0068359-2.1379395-0.7242432-4.6756592,0.2790527-6.8417969
		c-1.5195312,2.699585-3.6018066,5.0819092-6.0809326,6.9399414c-2.0050049,1.5029297-4.802124,2.6635132-6.9324951,1.3450317
		c-2.3924561-1.4812012-2.2800293-5.0570679-1.1713867-7.6431274c1.9042969-4.4428101,5.9428711-7.9124146,10.6217041-9.1260986
		c-3.6345215-1.3469238-7.4312744-2.803772-9.9610596-5.7402954c-2.529541-2.9365234-3.2264404-7.8404541-0.4375-10.5320435
		c2.534668-2.446228,6.8575439-2.019043,9.7478027-0.0055542c2.8901367,2.0135498,4.6872559,5.2097778,6.3867188,8.2949829
		c0.168457-3.4234619,1.8579102-7.755249,3.5437012-10.7397461c1.6856689-2.9844971,5.3322754-5.1621704,8.5651855-4.0241089
		c2.6293945,0.9255981,4.2241211,3.8429565,4.1448975,6.6293945c-0.0789795,2.786377-1.5733643,5.3816528-3.543335,7.354248
		c-1.9700928,1.972168-4.3979492,3.4120483-6.7973633,4.8305054c2.3585205,0.4928589,4.7424316,1.0203857,6.8864746,2.1201172
		c2.1437988,1.0997314,4.0540771,2.8502197,4.8438721,5.1264038
		C475.4807129,309.5535889,474.9243164,312.3702393,473.0019531,313.8226318z M477.8422852,238.8409424
		c-3.2226562,0-3.2172852-5,0-5C481.0649414,233.8409424,481.0595703,238.8409424,477.8422852,238.8409424z
		 M497.0147705,363.0334473c-0.9277344,0.7009888-2.2757568,0.5930176-3.3016357,0.0455933
		c-1.0258789-0.5474854-1.8017578-1.4569702-2.552002-2.3453369c0.6833496,0.9760132,1.3840332,1.9915771,1.6013184,3.1629639
		s-0.1888428,2.5476074-1.25,3.0890503c-1.1838379,0.6040039-2.748291-0.1314697-3.3144531-1.3338013
		c-0.5661621-1.2021484-0.2858887-2.6704102,0.4111328-3.8018799c-0.7415771,1.5095825-1.8444824,2.84021-3.1901855,3.848877
		c-0.9604492,0.7199097-2.300293,1.2758789-3.3208008,0.6442871c-1.1459961-0.7094727-1.092041-2.4223022-0.5610352-3.6610718
		c0.9121094-2.1281128,2.8466797-3.7901001,5.0878906-4.37146c-1.7409668-0.6451416-3.5596924-1.3429565-4.7714844-2.7495728
		c-1.2116699-1.4066162-1.5454102-3.7556763-0.2094727-5.0449219c1.2141113-1.1717529,3.284668-0.9671631,4.6691895-0.0026245
		c1.3842773,0.9644775,2.2451172,2.4954834,3.0593262,3.9733276c0.0805664-1.6398926,0.8898926-3.7148438,1.6972656-5.1444092
		c0.8076172-1.4295654,2.5541992-2.4727173,4.1027832-1.9275513c1.2595215,0.4433594,2.0234375,1.8407593,1.9854736,3.1754761
		c-0.0377197,1.3347168-0.7536621,2.5778198-1.6972656,3.5227051c-0.9437256,0.9447021-2.1065674,1.6343994-3.2559814,2.3138428
		c1.1297607,0.236084,2.2717285,0.4887695,3.2987061,1.015564c1.0268555,0.5267944,1.9418945,1.3652344,2.3201904,2.4555664
		C498.2021484,360.9885254,497.9355469,362.3377075,497.0147705,363.0334473z M499.5649414,330.9616089
		c1.9042969-4.4428101,5.9428711-7.9124146,10.6217041-9.1261597c-3.6343994-1.3468628-7.4312744-2.8037109-9.9609375-5.7402344
		c-2.5296631-2.9365845-3.2264404-7.8405151-0.4376221-10.5321045c2.534668-2.446228,6.857666-2.019043,9.7478027-0.0054932
		c2.8901367,2.0134888,4.6872559,5.2097778,6.3867188,8.2949829c0.168457-3.4235229,1.8579102-7.7553101,3.5437012-10.7397461
		c1.685791-2.9844971,5.3322754-5.1622314,8.5651855-4.0241089c2.6293945,0.9255981,4.2241211,3.8429565,4.1448975,6.6293335
		c-0.0789795,2.786377-1.5733643,5.3816528-3.543335,7.354248c-1.9699707,1.972229-4.3979492,3.4120483-6.7972412,4.8305054
		c2.3585205,0.4929199,4.7423096,1.0204468,6.8864746,2.1201782c2.1436768,1.0997314,4.0539551,2.8502197,4.8438721,5.1264038
		c0.7897949,2.2765503,0.2333984,5.0931396-1.6889648,6.5455933c-1.9367676,1.4634399-4.7512207,1.2380371-6.8928223,0.0951538
		c-2.1414795-1.1428833-3.7613525-3.041687-5.3277588-4.8961792c1.4267578,2.0374756,2.8892822,4.1576538,3.3431396,6.6031494
		c0.4537354,2.4454956-0.3942871,5.3186035-2.6097412,6.4489136c-2.4713135,1.2609863-5.7373047-0.2744751-6.9193115-2.7845459
		c-1.006958-2.1381226-0.7241211-4.6760254,0.2792969-6.8423462c-1.5195312,2.6998291-3.6019287,5.0823975-6.0811768,6.9404907
		c-2.0050049,1.5029297-4.802124,2.6635742-6.9324951,1.3450317
		C498.3438721,337.1235352,498.4562988,333.5476685,499.5649414,330.9616089z M534.6210938,413.9187012
		c-1.9367676,1.463501-4.7512207,1.2380981-6.8928223,0.0952148c-2.1414795-1.1429443-3.7613525-3.041687-5.3277588-4.8962402
		c1.4267578,2.0375366,2.8892822,4.1576538,3.3431396,6.6031494c0.4536133,2.4455566-0.3942871,5.3186035-2.6097412,6.4489746
		c-2.4713135,1.2609253-5.7373047-0.2744751-6.9193115-2.7845459c-1.006958-2.1380005-0.7241211-4.6757202,0.2790527-6.8419189
		c-1.5195312,2.699646-3.6018066,5.0820312-6.0809326,6.9400635c-2.0050049,1.5029297-4.802124,2.6635132-6.9324951,1.3450317
		c-2.3924561-1.4812012-2.2800293-5.0570679-1.1713867-7.6431274c1.9042969-4.4428101,5.9428711-7.9124146,10.6217041-9.1260986
		c-3.6345215-1.3469238-7.4312744-2.803772-9.9610596-5.7402954c-2.529541-2.9365234-3.2264404-7.8404541-0.4375-10.5320435
		c2.534668-2.4462891,6.8575439-2.019043,9.7478027-0.0055542c2.8901367,2.0135498,4.6872559,5.2097778,6.3867188,8.2949829
		c0.168457-3.4235229,1.8579102-7.755249,3.5437012-10.7397461c1.6856689-2.9844971,5.3322754-5.1621704,8.5651855-4.0241089
		c2.6293945,0.9255981,4.2241211,3.8429565,4.1448975,6.6293335c-0.0789795,2.786438-1.5733643,5.3817139-3.543335,7.3543091
		c-1.9700928,1.972168-4.3979492,3.4120483-6.7973633,4.8305054c2.3585205,0.4928589,4.7424316,1.0203857,6.8864746,2.1201172
		c2.1437988,1.0997314,4.0540771,2.8502197,4.8438721,5.1264038
		C537.0998535,409.6496582,536.543457,412.4663086,534.6210938,413.9187012z M550.5065918,365.6315918
		c-0.9277344,0.7009888-2.2758789,0.5930176-3.3017578,0.0455933c-1.0257568-0.5474854-1.8017578-1.4570312-2.552002-2.3453369
		c0.6833496,0.9759521,1.3840332,1.9915161,1.6013184,3.1629639c0.2174072,1.1713867-0.1887207,2.5476074-1.25,3.0890503
		c-1.1838379,0.6040039-2.748291-0.1314697-3.3144531-1.3338013c-0.5661621-1.2021484-0.2858887-2.6704712,0.4111328-3.8019409
		c-0.7414551,1.5096436-1.8443604,2.840271-3.1901855,3.848938c-0.9604492,0.7199097-2.300293,1.2758789-3.3208008,0.6442871
		c-1.1459961-0.7094727-1.092041-2.4223633-0.5610352-3.6610718c0.9122314-2.1281128,2.8466797-3.7901001,5.0878906-4.37146
		c-1.7409668-0.6451416-3.5596924-1.3430176-4.7713623-2.7496338c-1.211792-1.4066162-1.5455322-3.7556152-0.2095947-5.0448608
		c1.2141113-1.1717529,3.28479-0.9671631,4.6691895-0.0026855s2.2452393,2.4955444,3.0593262,3.9733276
		c0.0806885-1.6398315,0.8898926-3.7147827,1.6973877-5.1443481c0.8074951-1.4296265,2.5540771-2.4727173,4.1027832-1.9275513
		c1.2593994,0.4433594,2.0233154,1.8407593,1.9854736,3.1754761c-0.0378418,1.3346558-0.7536621,2.5778198-1.6973877,3.5227051
		c-0.9436035,0.9447021-2.1065674,1.6343994-3.2558594,2.3138428c1.1297607,0.236084,2.2716064,0.4887695,3.2987061,1.015564
		c1.0268555,0.5267334,1.9418945,1.3652344,2.3200684,2.4555664
		C551.6938477,363.5866699,551.4273682,364.9358521,550.5065918,365.6315918z"/>
	<circle class="st0" cx="512.5339355" cy="278.480835" r="2.1714141"/>
	<path class="st0" d="M465.9362793,417.6824341c-1.1489258-10.5518799-4.652832-20.3030396-11.9902344-28.1370239
		c-7.4345703-7.9378052-16.7194824-14.3012695-25.4946289-20.6478271
		c-9.4554443-6.8387451-19.1494141-13.3477783-29.0585938-19.5112915
		c-9.5545654-5.9429321-19.4243164-11.3740234-28.8804932-17.4750366
		c-16.6717529-10.7562866-32.6983643-24.7921753-38.6824951-44.3533936
		c-19.5878906,9.7518311-42.5324707,12.7525635-64.2297363,12.9807129c0.7987061-0.6571655,1.3511963-1.3890381,1.5803223-2.1705933
		c19.8730469-0.3404541,39.9516602-3.007019,58.2160645-11.2084961c2.6431885-1.1869507,5.2260742-2.5089722,7.7485352-3.9371338
		c6.5090332,6.7073364,13.0180664,13.4146729,19.5270996,20.1220093c0.7614746,0.7846069,1.9599609-0.4152222,1.1992188-1.1991577
		c-6.4031982-6.5982056-12.8063965-13.1963501-19.2094727-19.7945557c3.6591797-2.1669312,7.1569824-4.5979004,10.4475098-7.2894287
		c5.6394043,2.6633301,11.2197266,5.4514771,16.7329102,8.369812c0.9639893,0.5102539,1.8218994-0.9530029,0.855957-1.4642944
		c-5.328125-2.8204346-10.7185059-5.517334-16.1638184-8.0978394c1.1607666-0.9956665,2.3032227-2.0133667,3.404541-3.0774536
		c2.7888184-2.694397,5.3734131-5.6060791,7.7490234-8.6835938c3.9291992,0.4651489,7.8522949,0.9851685,11.7661133,1.5758057
		c1.067627,0.1611328,1.5280762-1.4727173,0.4509277-1.6353149c-3.6813965-0.555542-7.3706055-1.052002-11.0651855-1.4996338
		c3.557373-4.835083,6.6224365-10.039917,9.1160889-15.4727783c5.0335693-10.9668579,7.8793945-22.8959961,8.0638428-34.973877
		c0.0096436-0.6368408-0.5817871-1.3028564-1.25-1.25c-17.447998,1.3795776-35.1977539,3.0637817-51.6470947,9.4517822
		c-4.3927002,1.7058716-8.6549072,3.7253418-12.7193604,6.1118774
		c-9.8364258,5.8586426-17.8139648,14.0803833-24.5388184,23.2675781
		c-3.5793457,4.8897705-6.8347168,10.0066528-9.9931641,15.1751709c-3.112793,5.0936279-6.3259277,10.178772-8.8911133,15.5776978
		c-2.175293,4.578064-3.8083496,9.4140015-4.3378906,14.4295044c-0.6542969-0.2549438-1.362793-0.4803467-2.1166992-0.6713867
		c1.1176758-9.763916,6.3603516-18.6828613,11.4274902-26.9845581c5.2734375-8.6397705,10.6154785-17.2852173,17.0981445-25.086792
		c6.527832-7.8561401,14.2954102-14.4594116,23.3266602-19.2717285
		c19.152832-10.2055664,41.0469971-12.4519653,62.3432617-14.1369629
		c-0.1164551-3.7431641-0.4724121-7.4768066-1.1533203-11.1652222c-0.0042725-0.0229492-0.0023193-0.0436401-0.0056152-0.0663452
		c-0.0302734-0.1196289-0.0493164-0.2476196-0.0550537-0.3844604c-0.3065186-7.2643433-0.6131592-14.5287476-0.9196777-21.7930908
		c-0.2315674-5.4857178,0.2344971-11.6873169-1.6781006-16.9251099c-0.7929688-2.1723022-2.8984375-5.8474121-5.6964111-4.5855713
		c-2.3111572,1.0421753-4.4237061,3.1295166-6.2838135,4.8175049c-7.4311523,6.7441406-13.012207,15.3492432-16.1843262,24.8607788
		c0.4887695,0.9952393,0.0075684,2.5151367-1.4482422,2.5441895c-12.166748,0.2423706-24.3334961,0.4847412-36.5002441,0.7270508
		c-43.2595215,0.8617554-86.5188599,1.7235107-129.7783813,2.5852661c-0.6502686,0.0129395-1.1019287-0.2809448-1.3647461-0.6971436
		c-0.3862915-0.175293-0.7175903-0.4961548-0.8966064-0.992981c-1.1013794-3.0566406-2.5315552-5.9725952-4.2701416-8.7178955
		c-3.5699463-5.637085-8.5513916-10.7941284-14.3927002-14.0925293c-2.6981812-1.5236206-6.6935425-2.8359375-8.9827271,0.0861206
		c-1.6605225,2.1196899-1.7335205,5.2505493-1.6862793,7.8148193c0.1503906,8.1567383,0.8859253,16.3425903,1.3414917,24.4882812
		c0.4502563,8.0513306,0.8253784,16.112915,1.52948,24.1472168c0.3027344,3.4544067,0.6818237,6.9206543,1.1688232,10.3739624
		c10.5961914-0.8204346,21.2578735-1.5865479,31.8690796-0.6179199c8.9454956,0.8166504,17.8151245,2.8218994,25.9058838,6.8092041
		c7.2462158,3.571106,13.6935425,8.723999,19.1043701,14.6977539
		c10.8234253,11.9492188,17.3518677,26.8971558,21.8237915,42.2388916
		c-0.7249146,0.2827759-1.3811035,0.6026611-1.9594727,0.9524536
		c-4.5045776-15.5387573-11.1064453-30.6721191-22.2680664-42.6220703
		c-5.2180786-5.586731-11.383728-10.3751831-18.2972412-13.6771851c-7.9285889-3.7868652-16.6165771-5.6390381-25.3375854-6.343811
		c-10.104187-0.8165283-20.2512817-0.1109009-30.3342285,0.6652222c-0.8703613,0.0670166-1.3446045,0.7409668-1.2053833,1.5823364
		c2.0808716,12.5764771,5.9725342,25.0647583,13.1454468,35.6278687c-4.0616455,0.7764893-8.1049194,1.6523438-12.1259155,2.6309814
		c-1.0598755,0.2579956-0.6110229,1.8937378,0.4508057,1.6353149c4.2219849-1.0275269,8.4692993-1.9389038,12.7362671-2.7440186
		c0.9855957,1.3638306,2.0200195,2.6983032,3.1254883,3.9879761c1.704834,1.9889526,3.555542,3.8587036,5.5263062,5.5917969
		c-5.8163452,3.6517334-11.6327515,7.3034058-17.4490967,10.9551392c-0.9221191,0.5789185-0.0719604,2.046875,0.855896,1.4642944
		c5.9816284-3.7554932,11.9633179-7.5109253,17.9449463-11.2664185c2.6286011,2.1624756,5.4586182,4.0779419,8.4641724,5.6727905
		c1.019165,0.5408325,2.0604248,1.0324097,3.1121826,1.4996948c-1.8269653,5.6599731-3.6538696,11.3200073-5.480835,16.9800415
		c-0.3360596,1.0410156,1.3008423,1.4868774,1.6352539,0.4508057c1.8041382-5.5894165,3.6083374-11.178833,5.4124756-16.7682495
		c5.6895142,2.3148804,11.7600098,3.6951904,17.8085938,4.6488037c9.5969849,1.5131226,19.3219604,2.2923584,28.9977417,3.1084595
		c3.5265503,0.2955322,7.0561523,0.5506592,10.5876465,0.7764282c0.0385742,0.7880859,0.4036255,1.5373535,1.0224609,2.2237549
		c-10.0767822-0.6067505-20.1373291-1.5662231-30.1642456-2.6348267
		c-7.5648193-0.8060913-15.2058716-1.8721924-22.4768066-3.9714355c0.6451416,4.2524414,1.2024536,8.5182495,1.6185303,12.7993774
		c2.0095825,20.6796265,1.3163452,41.5259399-0.6610107,62.1795044
		c-2.0019531,20.9091797-5.2908325,41.6674805-8.5405884,62.4108276
		c-3.2564087,20.7857056-6.4963989,41.5949707-8.3546143,62.5618286c-0.2738037,3.0889893-0.5061646,6.1817017-0.7151489,9.276062
		h-0.000061c-0.0041504,0.0610352-0.0070801,0.1221313-0.0111694,0.1831665
		c-0.1904297,2.8377075-0.3464355,5.6773682-0.4746094,8.5184326c-0.0619507,1.350708-0.1171875,2.7015381-0.1638794,4.0527954
		c-0.0291748,0.8619385-0.0582275,1.7238159-0.0809326,2.5859985c-0.0614624,2.2808838-0.107666,4.5621338-0.119812,6.8440552
		c-0.0253296,4.7514038-0.2028809,9.6474609,0.3565674,14.3736572c0.37323,3.1529541,1.2495117,7.2103882,3.9472656,9.2390137
		c3.7090454,2.7890625,7.9567261-0.6497803,9.6213379-4.0500488c1.1077271-2.2626953,1.5971069-4.8000488,2.1151123-7.2474976
		c0.5742798-2.7127075,1.1300659-5.4293823,1.6691895-8.149292c0.4915161-2.4797363,0.9653931-4.9628296,1.4269409-7.4482422
		c0.2688599-1.4434204,0.5244751-2.8890991,0.7836304-4.3342896c0.164856-0.9228516,0.3328857-1.8451538,0.4937744-2.7687378
		c0.3356323-1.9189453,0.6591187-3.8399048,0.9776611-5.7617188c0.0587158-0.3554688,0.118042-0.7108154,0.1761475-1.0664062
		c0.3582153-2.1833496,0.7056885-4.3682861,1.041748-6.5551758c0.000061-0.0001831,0.000061-0.0004272,0.0001221-0.0006104
		c0.2654419-1.7272949,0.536499-3.4536743,0.788147-5.1830444c0.8087769-5.5574951,1.543335-11.1254272,2.2053833-16.7022095
		c0.5142212-4.331665,0.6651001-8.9394531,2.3881836-13.0073853c1.6990356-4.0111084,4.9989624-6.3746338,9.2679443-7.0738525
		c5.1724854-0.84729,10.5487671-0.9500122,15.7774658-1.1855469c5.5581055-0.2503052,11.1224365-0.3600464,16.6861572-0.3287964
		c5.161438,0.0289917,10.5182495-0.1532593,15.6231079,0.7254028c4.147644,0.7139282,7.8429565,2.8058472,10.0411987,6.4700928
		c2.0275879,3.3799438,2.6408691,7.4287109,2.8835449,11.3001709c0.3188477,5.0825806,0.1947021,10.2114868,0.2495117,15.3021851
		c0.0512695,4.7385864,0.1022949,9.4771729,0.1534424,14.2157593c0.0093994,0.8778076,0.0189209,1.7555542,0.0284424,2.6334229
		c0.0302734,2.8081665,0.0605469,5.616394,0.0908203,8.4245605s0.0605469,5.616333,0.0908203,8.4245605
		c0.0131836,1.2166138,0.0180664,2.4393311,0.0356445,3.6634521c0.0524902,3.6723633,0.2189941,7.357666,1.0627441,10.932373
		c0.2723389,1.1537476,0.6235352,2.3000488,1.0690918,3.4030762c0.4453125,1.1030884,0.9849854,2.1629028,1.6340332,3.1439209
		c2.9630127-0.0095215,5.9267578-0.0099487,8.8907471-0.0180054c2.9638672-0.0079956,5.9278564-0.0236206,8.8912354-0.0632324
		c0.098877-0.3837891,0.1794434-0.7750244,0.2434082-1.1702881c0.1281738-0.7905273,0.1901855-1.597229,0.1992188-2.3932495
		c0.0046387-0.3980103-0.0040283-0.793335-0.0241699-1.1826782c-0.0319824-0.6177368-0.0797119-1.2349854-0.1400146-1.8518677
		c-0.1204834-1.2337036-0.2913818-2.4656982-0.4875488-3.6963501c-0.2941895-1.8459473-0.6452637-3.6886597-0.9686279-5.5289307
		c-0.2156982-1.2268677-0.4189453-2.4526978-0.585083-3.6776123c-0.1928711-1.4226685-0.3687744-2.8469849-0.5303955-4.272583
		c-0.0244141-0.2145386-0.0439453-0.4294434-0.067627-0.644043c-0.1374512-1.2492676-0.267334-2.4991455-0.3813477-3.7501831
		c-0.010498-0.1157837-0.019043-0.2316284-0.0294189-0.3473511c-0.1224365-1.3708496-0.2333984-2.7425537-0.3280029-4.1150513
		c-0.0004883-0.0065918-0.0009766-0.0130615-0.0013428-0.0196533c-0.1004639-1.4581909-0.1856689-2.9172363-0.2553711-4.37677
		c-0.7480469-15.6427002,0.302124-31.3469238,3.1220703-46.7792358c-0.0008545-0.0020142-0.0015869-0.0039062-0.0023193-0.0058594
		c-0.4335938-1.0667114,0.2741699-1.8077393,1.157959-1.9838867c0.017334-0.003479,0.034668-0.0067749,0.052002-0.0097656
		c0.0495605-0.0115967,0.1005859-0.0180054,0.1516113-0.0246582c0.1765137-0.0231323,0.3586426-0.0101929,0.5391846,0.0217285
		c0.0128174,0.0021973,0.0252686,0.0036011,0.038208,0.0059814c0.171875,0.0340576,0.3393555,0.0913696,0.4990234,0.1710815
		c0.0168457,0.008667,0.0327148,0.0181274,0.0494385,0.0273438c0.4682617,0.2507935,0.8465576,0.685791,0.9359131,1.2642822
		c3.0246582,7.4395142,6.076416,14.8759155,9.6437988,22.0756226c6.2547607,12.6234131,14.2668457,24.875061,25.9139404,33.1408081
		c10.8438721,7.6958008,24.4906006,12.1064453,37.7062988,8.8370361c1.5076904-0.3729248,3.0582275,1.722229,1.6500244,2.8344727
		c-3.8339844,3.0284424-7.9060059,5.7070312-12.2353516,7.9754639
		c-18.4987793,9.6929321-39.7371826,12.2129517-60.3291016,12.7601929
		c-1.0540771,0.0280151-2.1083984,0.0314331-3.1625977,0.0509644c-1.3480225,0.0249634-2.6960449,0.0509033-4.0441895,0.0650024
		c-4.2888184,0.0450439-8.5778809,0.0603638-12.8670654,0.0668945c-1.6091309,0.0025024-3.2181396,0.0080566-4.8272705,0.015625
		c-3.7362061,0.0175781-7.47229,0.0507812-11.2076416,0.1470947c-0.6337891,0.0163574-1.267334,0.0421753-1.901001,0.0620117
		c-0.0006104,0-0.0010986,0.000061-0.001709,0.000061c-1.3127441,0.0410767-2.6251831,0.0900269-3.9373779,0.1483154
		c-0.2147827,0.0093994-0.4293823,0.0212402-0.644104,0.031189c-1.1300659,0.0529175-2.2598877,0.109375-3.3890991,0.1776123
		c-0.5666504,0.0338135-1.1326294,0.0767212-1.6990356,0.1147461c-0.821167,0.0557861-1.6425781,0.1074829-2.4630737,0.1727905
		c-1.4303589,0.1130981-2.8596802,0.2397461-4.2873535,0.3858032c-2.2321777,0.2283936-5.0074463,0.2545166-6.9415283,1.5526123
		c-1.8279419,1.2267456-1.9370117,3.404541-1.0458374,5.2664185c2.2764282,4.7562866,8.6617432,4.4880981,13.1210938,4.5526733
		c5.958313,0.0863037,11.916687,0.1711426,17.8754272,0.2363281c12.034668,0.1316528,24.0715332,0.1838989,36.1060791,0.0053711
		c23.9631348-0.3554688,47.9693604-1.602417,71.7092285-5.012146c20.4598389-2.9385986,42.7618408-6.7385254,59.2904053-20.1324463
		c15.5681152-12.6156006,23.8616943-31.8991699,27.480957-51.1882324
		c2.2016602-11.7340088,2.8024902-23.7025757,2.9898682-35.618103
		C466.7197266,439.5443115,467.1130371,428.4918213,465.9362793,417.6824341z M352.8959961,179.7061157
		c2.1651611-3.9946289,4.5250244-7.979126,7.2788086-11.6009521c1.1289062-1.4848633,2.5161133-2.8257446,4.4553223-3.0419922
		c1.9443359-0.2167358,3.7298584,0.862793,4.8486328,2.3936157c1.0639648,1.4561157,1.4904785,3.3069458,1.7668457,5.0585327
		c0.3291016,2.0861816,0.4453125,4.1931152,0.2585449,6.2991943c-0.1595459,1.800415-0.314209,4.0457153-1.3688965,5.5872192
		c-1.1928711,1.7435303-3.1633301,1.9725952-5.0964355,1.5979614c-3.8659668-0.7491455-7.3214111-2.8404541-11.1293945-3.8023682
		c-0.7766113-0.196167-1.1439209-0.7605591-1.1973877-1.3696899
		C352.6425781,180.4812622,352.6828613,180.0991211,352.8959961,179.7061157z M163.5042114,191.4957886
		c-1.5703125,0.6898193-3.529541,0.6062012-5.2125244,0.760376c-1.994873,0.1828613-3.9898682,0.3656616-5.9848022,0.5484009
		c-0.7045898,0.0646362-1.3234253-0.4683838-1.5744019-1.1049194c-0.0957642-0.1530151-0.1768799-0.3258667-0.2243652-0.536438
		c-0.9313354-4.1272583-0.9934692-8.3821411-0.1563721-12.531311c0.3283081-1.6273804,0.6949463-3.6705322,1.6575928-5.0571899
		c0.5626221-0.8103638,1.406311-1.2896118,2.4022827-1.222229c0.9712524,0.0657959,1.6771851,0.7058716,2.3233032,1.3723755
		c2.4371338,2.5144043,4.562561,5.3652344,6.267395,8.4241333
		C164.4175415,184.6884155,167.5136719,189.734375,163.5042114,191.4957886z M225.1436157,216.8137207
		c-0.3101196,0.7821655-0.9309082,1.3985596-1.5839233,1.9291382c-2.4549561,1.9946899-5.6239014,3.0765381-8.7858276,3.0318604
		c1.9003296,1.7063599,3.4659424,3.78479,4.5697632,6.0880737c0.5407104,1.1282959,0.9801636,2.3734131,0.7918701,3.6102905
		c-0.1883545,1.2368774-1.1885376,2.4248657-2.4396362,2.4379883c-0.758667,0.0079956-1.4753418-0.4094238-1.9790039-0.9767456
		c-0.5036621-0.5673828-0.8220215-1.2734985-1.0899048-1.9833374c-1.0118408-2.6807251-1.4055786-5.5927124-1.1419067-8.4459229
		l0.1604614-0.3157959l-0.109375,0.0608521c0.0477905-0.0961914,0.1052856-0.1871338,0.1548462-0.2824097
		c-3.4519043-0.9456787-6.8236084-2.25-10.0941162-3.5447388c1.5830078,1.571106,2.9009399,3.4094238,3.8648071,5.4207764
		c0.5407104,1.1282959,0.9801636,2.3733521,0.7918091,3.6102905c-0.1882935,1.2368774-1.1884766,2.4248047-2.4395752,2.4379883
		c-0.758606,0.0079956-1.4753418-0.4094238-1.9790039-0.9767456c-0.5036621-0.5673828-0.8220215-1.2734985-1.0899658-1.9833374
		c-1.0118408-2.6807861-1.4055176-5.5927734-1.1419067-8.4459229l0.1605225-0.3157959l-0.109375,0.060791
		c0.0791626-0.1594849,0.1725464-0.3112183,0.2567139-0.4680786c-0.6634521-0.2610474-1.3260498-0.5249023-1.991333-0.7789917
		c-2.463501-0.940979-5.1852417-1.8931885-8.0271606-2.5970459c1.7488403,1.2045898,3.3016357,2.6942139,4.5727539,4.3954468
		c0.7489014,1.0022583,1.4210815,2.1387329,1.475769,3.3886719c0.0547485,1.249939-0.6965942,2.6090698-1.9214478,2.8641968
		c-0.7427368,0.1547241-1.5266724-0.1160889-2.1306763-0.5752563c-0.6040039-0.4591064-1.0530396-1.09021-1.4532471-1.7347412
		c-1.5116577-2.4342041-2.4616699-5.2148438-2.7553101-8.0651245l0.0963135-0.3408813l-0.09552,0.0808105
		c0.0430908-0.1582031,0.100769-0.3118896,0.1484375-0.46875c-1.5914917-0.3101196-3.2078857-0.5341187-4.8348999-0.6015015
		c-2.1334839-0.0884399-4.1810913,0.0811768-6.0935059,0.4922485c2.1360474,0.887207,4.1169434,2.1482544,5.8115234,3.7228394
		c0.9165039,0.8516235,1.7817383,1.8490601,2.0598145,3.0689087s-0.2172241,2.6916504-1.3764038,3.1624146
		c-0.7029419,0.2854614-1.5227661,0.15979-2.1992798-0.1835938c-0.6765747-0.3433228-1.2315674-0.883606-1.7409668-1.4458618
		c-1.9238281-2.1234741-3.3573608-4.6885986-4.1576538-7.4398804l0.0335693-0.3526611l-0.0794678,0.0966797
		c0.0059814-0.0699463,0.0196533-0.1389771,0.0264893-0.2088013c-2.4991455,0.7507935-4.7209473,1.94104-6.5341187,3.5380249
		l-0.407959-0.4628906c1.9433594-1.711731,4.3362427-2.9706421,7.0267334-3.7410889
		c0.4645996-3.3520508,1.916748-6.5639648,4.1556396-9.1029053c0.8582153-0.9732056,2.1602783-1.9178467,3.3496704-1.399292
		c0.7713013,0.3362427,1.1931152,1.2235718,1.1911621,2.0650024c-0.0018311,0.8413696-0.3535767,1.642395-0.7667236,2.3754272
		c-1.373291,2.4364624-3.5278931,4.4143066-6.0526123,5.6139526c1.828125-0.3527222,3.7660522-0.4987793,5.77948-0.4153442
		c1.6845093,0.0697632,3.3550415,0.3031006,4.9970703,0.6261597c1.0769043-3.1266479,3.0541382-5.940979,5.6517334-7.9892578
		c1.0189209-0.8034668,2.4692993-1.4991455,3.5464478-0.7755737c0.6984253,0.4691772,0.9541016,1.4177856,0.8012695,2.2451782
		s-0.6425781,1.5523071-1.180542,2.1992798c-1.9198608,2.309082-4.6306763,3.9346924-7.5617676,4.5808716
		c3.1508179,0.7218628,6.1611938,1.7748413,8.8653564,2.8076782c0.6918335,0.2642822,1.3807983,0.5385132,2.0704956,0.8100586
		c1.6618042-2.8423462,4.1384888-5.2059937,7.0706177-6.7061768c1.1552124-0.5910034,2.7128296-0.9927368,3.6295166-0.0744019
		c0.5944214,0.59552,0.6616211,1.5756836,0.3515015,2.3579102c-0.3101196,0.7821655-0.9309692,1.3985596-1.5839844,1.9291382
		c-2.2768555,1.8500366-5.1679688,2.9190063-8.0979614,3.0296631c3.3745728,1.3358765,6.8564453,2.7067871,10.4100342,3.6693726
		c1.6612549-2.9246216,4.1776123-5.3601685,7.1728516-6.8926392c1.1552124-0.5910034,2.7128296-0.9927368,3.6295166-0.0744019
		C225.3864746,215.0513306,225.4537354,216.0315552,225.1436157,216.8137207z M182.0125122,540.4579468
		c-3.2225952,0-3.2172852-5,0-5C185.2350464,535.4579468,185.2297363,540.4579468,182.0125122,540.4579468z
		 M183.3742065,528.5430298c-3.2225952,0-3.2172852-5,0-5C186.5968018,523.5430298,186.5914307,528.5430298,183.3742065,528.5430298
		z M185.0762939,516.9685669c-3.2225952,0-3.2172241-5,0-5
		C188.2988892,511.9685669,188.2935791,516.9685669,185.0762939,516.9685669z M246.0125122,558.5004883
		c-3.2225952,0-3.2172852-5,0-5C249.2350464,553.5004883,249.2297363,558.5004883,246.0125122,558.5004883z
		 M258.2678223,558.1600952c-3.2225952,0-3.2172852-5,0-5C261.4904785,553.1600952,261.4851074,558.1600952,258.2678223,558.1600952
		z M438.3465576,399.9777222c10.9780273,4.109375-10.1561279,16.9660645-11.6824951,21.7797852
		C426.6640625,421.7575073,427.3685303,395.8681641,438.3465576,399.9777222z M427.3685303,433.4988403
		c0,0,1.585083-9.2756348,5.1074219-8.6298218C435.998291,425.5147705,431.4196777,430.4933472,427.3685303,433.4988403z
		 M360.7497559,466.5913086c3.7617188-1.2409668-0.2932129,4.7773438,0.206665,6.9545288
		C360.9564209,473.5458374,356.987793,467.8322754,360.7497559,466.5913086z M355.6331787,445.1990967
		c11.4969482,1.3626709-6.338623,12.7251587-5.932251,23.6953735
		C349.7009277,468.8944702,344.1362305,443.8364258,355.6331787,445.1990967z M336.5710449,460.7904053
		c0,0-0.9256592-8.3812256,3.2702637-8.1400146C344.0369873,452.8914185,337.3178711,457.5254517,336.5710449,460.7904053z
		 M278.9401855,265.9112549c5.987915-9.8783569,12.2460938-19.7642822,20.4005127-28.0244141
		c4.2957764-4.3515015,9.0681152-8.1817017,14.3244629-11.3125c14.6236572-8.5863647,31.4842529-12.0401611,48.1619873-13.867981
		c4.5383301-0.4974365,9.0880127-0.8821411,13.638916-1.2460938c-0.5635986,17.4749756-6.8286133,34.8497925-17.4797363,48.7543335
		c-8.795166-0.998291-17.6228027-1.6953125-26.470459-2.0728149c-1.0910645-0.0465698-1.0888672,1.6494141,0,1.6958618
		c8.4365234,0.3599854,16.8566895,1.0031128,25.246582,1.9292603c-1.3537598,1.6813965-2.7591553,3.3200073-4.2426758,4.885376
		c-2.0524902,2.1657715-4.2336426,4.1693115-6.5024414,6.0523682c-4.824707-2.2467651-9.6848145-4.418396-14.5943604-6.4790039
		c-1.0050049-0.4217529-1.4437256,1.2185669-0.4508057,1.6353149c4.5749512,1.920166,9.1032715,3.9465942,13.6030273,6.0340576
		c-3.0812988,2.4343262-6.3391113,4.6189575-9.7263184,6.5872803c-2.0142822-2.0756226-4.0285645-4.1511841-6.0427246-6.2268066
		c-0.7614746-0.7846069-1.9599609,0.4152222-1.1992188,1.1991577c1.9055176,1.963501,3.8109131,3.927002,5.7163086,5.8905029
		c-9.7910156,5.4347534-20.621582,9.0748291-31.6184082,11.3106689c-10.8283691,2.2015991-21.8537598,3.0393677-32.887085,3.2060547
		c-0.3865967-0.6337891-0.9901123-1.223877-1.7655029-1.7543335
		C267.7977295,283.7716064,273.6706543,274.6047974,278.9401855,265.9112549z M283.9262695,208.6343384
		c0.7558594-1.0547485,2.3580322-0.9104614,3.59375-0.5143433c3.2038574,1.0272217,6.0812988,3.0231323,8.1942139,5.6401978
		c3.3508301-1.5253296,6.5648193-3.4419556,9.6784668-5.3066406c-2.9093018,0.3652344-5.9353027-0.2214355-8.4815674-1.6783447
		c-0.7304688-0.4178467-1.4428711-0.9255981-1.8754883-1.6472168c-0.4327393-0.7216797-0.5251465-1.6997681-0.0349121-2.383667
		c0.7558594-1.0547485,2.3579102-0.9105225,3.5935059-0.5143433c3.1364746,1.0056152,5.9631348,2.9370117,8.0632324,5.4727783
		c0.6367188-0.3796387,1.2722168-0.7618408,1.9121094-1.1347046c2.5012207-1.4570312,5.3012695-2.9835815,8.2937012-4.2061157
		c-2.9970703-0.1630249-5.9353027-1.3282471-8.2038574-3.2959595c-0.635498-0.5512695-1.2362061-1.1873779-1.5209961-1.9790649
		c-0.28479-0.791748-0.1860352-1.7692871,0.427124-2.3453369c0.9456787-0.8884277,2.489624-0.4367676,3.6252441,0.1911011
		c2.8948975,1.600647,5.3018799,4.0576172,6.8708496,6.968689c1.5679932-0.5847168,3.1787109-1.0855103,4.8297119-1.427063
		c1.9733887-0.4083862,3.9094238-0.578125,5.7705078-0.526062c-2.6856689-0.7749634-5.1320801-2.3778687-6.8818359-4.5597534
		c-0.5263672-0.6564331-1.0031738-1.3899536-1.1413574-2.2199097c-0.1380615-0.8300171,0.1345215-1.7739868,0.8410645-2.2306519
		c1.0898438-0.7043457,2.52771,0.0170288,3.5322266,0.8384399c2.6203613,2.1428833,4.5734863,5.0772705,5.574707,8.3098145
		c2.7797852,0.324646,5.3449707,1.1794434,7.5397949,2.5539551l-0.3276367,0.5228271
		c-2.0478516-1.2823486-4.4331055-2.0971069-7.020752-2.4332886c0.0180664,0.0678101,0.0427246,0.133728,0.0599365,0.2017822
		l-0.0941162-0.0825195l0.090332,0.3424683c-0.3442383,2.8446655-1.3435059,5.6080322-2.8981934,8.0150146
		c-0.4116211,0.6372681-0.8718262,1.2603149-1.4837646,1.7086792c-0.6120605,0.4483643-1.4006348,0.7051392-2.1405029,0.5372925
		c-1.2202148-0.2768555-1.9472656-1.6490479-1.8703613-2.8978271s0.769165-2.3731689,1.5356445-3.3619385
		c1.4172363-1.828186,3.1678467-3.3933716,5.1320801-4.6147461c-1.9538574-0.0959473-4.0018311,0.0681763-6.0927734,0.5009155
		c-1.5947266,0.3299561-3.1535645,0.8127441-4.6738281,1.3765259c0.0725098,0.1470337,0.1542969,0.2893066,0.2224121,0.4384766
		l-0.1072998-0.06427l0.1502686,0.3208008c0.1716309,2.8601685-0.3154297,5.7579956-1.4130859,8.4048462
		c-0.2905273,0.7008057-0.6314697,1.3963623-1.1530762,1.9472046c-0.5217285,0.5508423-1.2514648,0.9450073-2.0095215,0.9125977
		c-1.25-0.0534058-2.2114258-1.2728882-2.3598633-2.5151978s0.3308105-2.4726562,0.9075928-3.5829468
		c0.9788818-1.8846436,2.2700195-3.6060181,3.8006592-5.0779419c-2.6904297,1.1547852-5.2219238,2.5351562-7.5006104,3.8626099
		c-0.6153564,0.3584595-1.2265625,0.7261353-1.8389893,1.0911865c0.1085205,0.1411743,0.2252197,0.2758179,0.3291016,0.4203491
		l-0.1176758-0.0422974l0.2094727,0.2856445c0.722168,2.7728271,0.8051758,5.710144,0.2407227,8.5194092
		c-0.1494141,0.7437744-0.3491211,1.4921265-0.7543945,2.133606c-0.4050293,0.6414185-1.0446777,1.1693726-1.7946777,1.2843018
		c-1.2366943,0.1896362-2.4160156-0.8207397-2.8022461-2.0107422c-0.3859863-1.1901245-0.1540527-2.4899292,0.1967773-3.6908569
		c0.6254883-2.1409302,1.628418-4.168396,2.9360352-5.9750366c-3.0175781,1.8071899-6.1335449,3.6403198-9.3868408,5.1324463
		c0.0643311,0.0859375,0.1358643,0.1663818,0.1986084,0.25354l-0.1179199-0.0422363l0.2094727,0.2855835
		c0.72229,2.7728882,0.8051758,5.710144,0.2408447,8.5194092c-0.1494141,0.7438354-0.3492432,1.4921875-0.7543945,2.133606
		s-1.0447998,1.1693726-1.7946777,1.2843018c-1.2366943,0.1896362-2.4161377-0.8206787-2.802124-2.0108032
		c-0.3862305-1.1900024-0.1540527-2.4898682,0.1967773-3.6907959c0.7161865-2.4516602,1.9246826-4.7561646,3.5235596-6.7476807
		c-3.112915,0.5560303-6.4151611,0.0016479-9.1607666-1.5692139c-0.7303467-0.4178467-1.442749-0.9255981-1.8754883-1.6472778
		C283.5285645,210.2963867,283.4362793,209.3182373,283.9262695,208.6343384z M248.1243286,245.9502563
		c-2.0050659,1.5029297-4.802124,2.6635132-6.9326172,1.3450317c-2.392395-1.4812012-2.2798462-5.0570068-1.1712646-7.6431274
		c1.9042969-4.4428101,5.9428101-7.9124146,10.6217041-9.1260986c-3.6345215-1.3469238-7.4313354-2.803772-9.9609985-5.7402954
		c-2.5296021-2.9365234-3.2265015-7.8404541-0.4375-10.5320435c2.5346069-2.446228,6.8574829-2.019043,9.7477417-0.0055542
		c2.8900146,2.0135498,4.6871948,5.2097778,6.3867798,8.2949829c0.168396-3.4234619,1.8578491-7.755249,3.5435791-10.7397461
		c1.6856689-2.9844971,5.3321533-5.1621704,8.5651855-4.0241089c2.6295166,0.9256592,4.2242432,3.8429565,4.1448975,6.6293945
		c-0.0788574,2.786377-1.5733643,5.3816528-3.543457,7.354248c-1.9699707,1.972168-4.3977051,3.4120483-6.7971191,4.8305054
		c2.3583984,0.4928589,4.7424316,1.0203857,6.8864746,2.1201172c2.1437988,1.0997314,4.0539551,2.8502197,4.84375,5.1264038
		c0.789917,2.2765503,0.2336426,5.0932007-1.6888428,6.5455933c-1.9367676,1.463501-4.7510986,1.2380981-6.8927002,0.0952148
		s-3.7614746-3.041687-5.3278809-4.8962402c1.4267578,2.0375366,2.8894043,4.1576538,3.3431396,6.6031494
		c0.4537354,2.4455566-0.394165,5.3186035-2.6097412,6.4489746c-2.4713135,1.2609253-5.7372437-0.2744751-6.9192505-2.7845459
		c-1.006897-2.1379395-0.7242432-4.6756592,0.2790527-6.8417969
		C252.6856689,241.7098999,250.6033936,244.0922241,248.1243286,245.9502563z M232.9254761,294.399231
		c-8.4222412-0.7103271-16.8583984-1.4335327-25.2363892-2.5665283c-7.0332031-0.9511108-14.2096558-2.3280029-20.8043823-5.0625
		c0.8718872-2.7011108,1.7437134-5.4021606,2.6156006-8.1032715c0.3359985-1.0410156-1.3008423-1.4868774-1.6352539-0.4508057
		c-0.8485718,2.6288452-1.6970825,5.2577515-2.5456543,7.8866577c-0.0759888-0.0346069-0.1546631-0.0632324-0.2304688-0.0982666
		c-3.5614014-1.6447754-6.8397217-3.7202148-9.8458252-6.1210327c3.2826538-2.0609741,6.5652466-4.1218262,9.8479004-6.1828003
		c0.9221802-0.5789795,0.0719604-2.046875-0.855896-1.4643555c-3.4553223,2.1693726-6.9105835,4.3386841-10.3659058,6.5080566
		c-3.0133667-2.5830688-5.7288208-5.5046387-8.1376343-8.6790161c5.350708-0.9468994,10.7321777-1.7192993,16.1379395-2.3099365
		c1.0733032-0.1172485,1.0852051-1.8144531,0-1.6958618c-5.7821655,0.6317749-11.5369263,1.4678955-17.2572632,2.496521
		c-2.3658447-3.324646-4.4129028-6.8925781-6.1323242-10.6048584c-3.480835-7.5151367-5.6118164-15.5809326-7.0429688-23.72052
		c16.7653198-1.2728882,34.2398071-2.199585,50.1393433,4.2113647
		c14.0758057,5.6755981,24.8161011,17.4086914,32.0441895,30.4768066
		c4.5796509,8.2797241,7.7966309,17.2081299,10.3817139,26.2890015
		C240.307251,294.9755249,236.6148682,294.708374,232.9254761,294.399231z M282.7784424,516.7345581c3.2225342,0,3.2172852,5,0,5
		C279.5559082,521.7345581,279.5611572,516.7345581,282.7784424,516.7345581z M283.7998047,527.2877197c3.2225342,0,3.2171631,5,0,5
		C280.5771484,532.2877197,280.5825195,527.2877197,283.7998047,527.2877197z M286.1826172,542.1600952
		c-3.2225342,0-3.2171631-5,0-5C289.4052734,537.1600952,289.3999023,542.1600952,286.1826172,542.1600952z
		 M292.5906982,351.6426392c2.6419678,0.6467896,5.0599365,2.1760254,6.7767334,4.2857056
		c0.7033691,0.8643188,1.3168945,1.9456787,1.1047363,3.0394287c-0.2514648,1.2963257-1.65979,2.1390991-2.979126,2.0828857
		c-1.3192139-0.0560303-2.5145264-0.8241577-3.4439697-1.762207c-1.9191895-1.9370728-2.9438477-4.7174072-2.7646484-7.4373779
		c-2.0679932,0.4177856-4.1533203,0.7634277-6.2600098,1.012207c-0.4533691,0.0536499-0.9074707,0.0979614-1.3613281,0.1427612
		c1.8452148,1.8048706,3.6904297,3.6098022,5.5358887,5.4147339c0.616333,0.6028442,1.244873,1.2224731,1.6206055,1.9985962
		s0.4545898,1.7532349-0.0224609,2.4715576c-0.659668,0.9929199-2.1491699,1.1199341-3.2177734,0.5915527
		s-1.8082275-1.5338745-2.4848633-2.5153809c-0.8410645-1.2197266-1.6578369-2.47229-2.1936035-3.8534546
		c-0.4914551-1.2671509-0.7297363-2.6604614-0.5048828-3.9954224c-2.7458496,0.2208252-5.4992676,0.2823486-8.2498779,0.1720581
		c1.7995605,0.9821777,3.3483887,2.425354,4.4281006,4.1690063c1.3952637,2.2533569,2.0030518,4.9841919,1.6950684,7.6166382
		c-0.0751953,0.6434326-0.3356934,1.4172363-0.9759521,1.5158081c-0.4632568,0.0714722-0.8817139-0.2634888-1.2235107-0.5842285
		c-3.6479492-3.4230347-6.3944092-7.7931519-7.9121094-12.5596924c-1.0661621,4.8873901-3.3925781,9.494873-6.7049561,13.2435303
		c-0.3104248,0.3512573-0.6956787,0.7237549-1.1636963,0.6959229c-0.6466064-0.0383911-0.9781494-0.7845459-1.1131592-1.4180908
		c-0.5523682-2.5922241-0.2022705-5.3678589,0.9765625-7.7415771c0.9122314-1.836853,2.319458-3.418396,4.0195312-4.56427
		c-2.7283936,0.3666382-5.4754639,0.562439-8.2299805,0.598938c0.3486328,1.3081055,0.2415161,2.7175903-0.1295166,4.0250854
		c-0.404541,1.4251709-1.1008911,2.7485352-1.8243408,4.0414429c-0.5820312,1.0403442-1.2244873,2.1105347-2.2391357,2.7363892
		c-1.0145264,0.6257935-2.5095215,0.6384277-3.2589111-0.2885742c-0.5420532-0.6705933-0.5546875-1.6508179-0.2531128-2.4586792
		c0.3015747-0.8078003,0.8695068-1.4833374,1.427002-2.1411743c1.6687012-1.9692993,3.3374023-3.9385986,5.0061035-5.9078979
		c-0.4561768-0.0021973-0.9122925-0.0039673-1.3686523-0.0150146c-2.1209106-0.0510254-4.229248-0.2004395-6.3272095-0.4234009
		c0.432373,2.6914062-0.3283081,5.5552368-2.0583496,7.6630859c-0.8377686,1.0206909-1.9560547,1.8970947-3.2643433,2.0759888
		c-1.3082886,0.1791382-2.7891235-0.5285034-3.1605225-1.7955933c-0.3134155-1.0692139,0.1965332-2.203125,0.8161011-3.1293335
		c1.5123291-2.2607422,3.7769775-4.0090332,6.3470459-4.8997192l0.3457642-0.027832
		c-2.0758667-0.2449951-4.1415405-0.5598145-6.1957397-0.9434204c-0.9158936,3.4483032-3.527771,6.4050293-6.8448486,7.7221069
		c-1.2404175,0.4925537-2.8919678,0.6582642-3.6950684-0.4076538c-0.4813232-0.6386719-0.4731445-1.5500488-0.1548462-2.2837524
		c0.3183594-0.7336426,0.901001-1.3188477,1.5122681-1.8344116c2.2969971-1.9381714,5.2038574-3.1292114,8.1967163-3.3936768
		c-3.9272461-0.772644-7.817688-1.7562866-11.6697998-2.8840332c-1.6511841-0.4833984-3.2974243-0.9846191-4.9437256-1.4854126
		l0.0620117,0.3065186c0.0134888,3.4995728-1.944458,6.9415894-4.9594727,8.7185059
		c-0.6555786,0.3862305-1.3772583,0.7034302-2.1376953,0.7289429c-0.760498,0.0255737-1.565918-0.288208-1.9703979-0.9324951
		c-0.644043-1.0259399-0.0726929-2.3729248,0.6241455-3.3635864c1.9017334-2.7034302,4.7666016-4.7028809,7.9505005-5.5872803
		c-2.6776733-0.8166504-5.3518066-1.6461182-8.0219116-2.4888916c-0.8323364,3.0106201-2.6419678,5.7431641-5.0962524,7.6756592
		c-1.1675415,0.9194336-2.8175049,1.6676636-4.0821533,0.8872681c-1.2920532-0.7974854-1.3013306-2.8024292-0.418457-4.0376587
		c0.8829346-1.2352295,2.3496704-1.8876953,3.7457275-2.4847412c1.7095337-0.7310791,3.4190063-1.4620972,5.12854-2.1931763
		l0.270874,0.0093994c-4.1342163-1.3062134-8.2637329-2.6280518-12.3989258-3.9243774
		c-0.699646-0.2194214-0.4524536-1.3399048,0.2528687-1.1187744c4.8699341,1.5267334,9.7399292,3.0534058,14.6099243,4.5801392
		c0.1630859,0.0510864,0.3262939,0.1027832,0.4893799,0.1541138c-2.1514282-2.0408936-4.3028564-4.0818481-6.4543457-6.1226807
		c-0.6830444-0.6479492-1.3762207-1.3085327-1.8422241-2.1266479c-0.4660034-0.8179932-0.6801147-1.831543-0.3449707-2.7113037
		c0.5313721-1.3948364,2.3156128-1.9924316,3.7559204-1.6004028c1.4402466,0.3919678,2.5604248,1.5275269,3.4226074,2.7460327
		c2.0742188,2.9315186,3.0286255,6.6234131,2.6719971,10.1956787c5.6573486,1.7831421,11.324707,3.590332,17.0905762,4.9849243
		c-2.3876953-2.2786255-4.7753296-4.557312-7.1630249-6.8359375c-0.7823486-0.746582-1.5787354-1.5116577-2.0783691-2.4706421
		c-0.4996948-0.9591675-0.65802-2.1643066-0.1347656-3.1107178c0.8804321-1.5925293,3.2938843-1.6933594,4.8036499-0.6773071
		c1.5096436,1.0159912,2.3313599,2.7583618,3.0829468,4.4157104c1.4055176,3.0992432,2.8110962,6.1986694,4.2166138,9.2979126
		c1.3199463,0.2852173,2.6437988,0.553772,3.9765015,0.7835083c1.4759521,0.2542725,2.9609985,0.4572144,4.4492798,0.6355591
		c-2.1002808-3.2589111-3.887085-6.7199097-5.2952271-10.3320312c-0.3712769-0.9521484-0.722229-1.9431763-0.6912231-2.9647217
		c0.0308838-1.0214844,0.5250854-2.0906982,1.4495239-2.5263062c1.0769043-0.5075684,2.4178467,0.0022583,3.2055664,0.8948975
		c0.7876587,0.8924561,1.1383667,2.0808716,1.4151001,3.2386475c0.9225464,3.859436,1.2683105,7.8549805,1.0289917,11.8156738
		c6.0049438,0.6379395,12.0760498,0.6260986,18.050415-0.2536621c-1.4180908-0.307373-2.8139648-0.953064-4.0998535-1.6456299
		c-2.6018066-1.4013062-5.1875-3.0543213-6.824707-5.5147095c-1.637207-2.460144-2.1013794-5.9107056-0.4078979-8.3325195
		c0.8599243-1.2297974,2.4509888-2.1244507,3.861084-1.6112671c1.0880737,0.3959961,1.7633667,1.5143433,2.0344849,2.6401367
		c0.2711182,1.1257324,0.2237549,2.3007202,0.3468018,3.4520264c0.4863281,4.5435791,3.8999023,8.6329346,8.2796631,9.9317017
		c4.239502-1.7020264,7.2562256-6.0922241,7.3162842-10.6613159c0.0151367-1.1577759-0.1418457-2.3231812,0.0229492-3.4693604
		c0.1647949-1.1461182,0.7329102-2.3226929,1.7791748-2.8184814c1.3560791-0.6426392,3.0236816,0.0995483,3.9946289,1.2436523
		c1.9122314,2.2531738,1.7722168,5.7319946,0.3718262,8.3342285c-1.4002686,2.602478-3.8204346,4.4896851-6.2801514,6.1278687
		c-1.215332,0.8095093-2.5449219,1.5827026-3.9282227,2.0211792c6.0305176,0.3181152,12.0761719-0.2369385,17.9953613-1.4326782
		c-0.6081543-3.9210815-0.6369629-7.9314575-0.0786133-11.8601074c0.1673584-1.1785889,0.4055176-2.3945312,1.1064453-3.3566895
		c0.7009277-0.9622803,1.9885254-1.5950317,3.1080322-1.1902466c0.9610596,0.3474121,1.5528564,1.3657837,1.6790771,2.3799438
		s-0.1306152,2.0336914-0.411377,3.0163574c-1.0648193,3.7277832-2.5206299,7.3404541-4.3076172,10.78125
		c1.46521-0.3165283,2.9248047-0.6572266,4.3706055-1.0482178c1.3054199-0.3530884,2.5983887-0.7440796,3.8859863-1.1513062
		c1.1101074-3.2169189,2.2200928-6.434082,3.3300781-9.651001c0.5936279-1.7202148,1.2490234-3.5317383,2.6572266-4.6842651
		c1.4083252-1.1525269,3.8206787-1.2774658,4.8459473,0.2258911c0.609375,0.8934326,0.564209,2.1080933,0.15625,3.1096802
		c-0.407959,1.0015259-1.1293945,1.8375854-1.838623,2.6539307c-2.1645508,2.4916382-4.3291016,4.9832153-6.4936523,7.4748535
		c5.6105957-1.9268188,11.0844727-4.255188,16.5505371-6.5587769c-0.6884766-3.5233765-0.0830078-7.288208,1.7084961-10.4005737
		c0.7446289-1.2937012,1.7539062-2.5289307,3.1513672-3.0535889c1.3974609-0.5247803,3.2296143-0.0963745,3.888916,1.2427368
		c0.4157715,0.8446655,0.2972412,1.8737183-0.090332,2.7316284c-0.3876953,0.8580322-1.0161133,1.5805054-1.6357422,2.2894287
		c-1.951416,2.2327271-3.9029541,4.4656372-5.8544922,6.6984863c0.1577148-0.0663452,0.3153076-0.1329956,0.4729004-0.1991577
		c4.7061768-1.9747314,9.4123535-3.9493408,14.1185303-5.9241333c0.6815186-0.2860107,1.0323486,0.8065186,0.3560791,1.090271
		c-3.9959717,1.6767578-7.9841309,3.3783569-11.9782715,5.0648804l0.2687988-0.034668
		c1.7702637,0.5682983,3.5405273,1.1364746,5.3109131,1.7047729c1.4456787,0.4640503,2.9669189,0.9767456,3.9613037,2.1241455
		c0.9943848,1.1474609,1.1723633,3.1444702-0.0395508,4.0591431c-1.1862793,0.8950806-2.8989258,0.3040771-4.1472168-0.5023193
		c-2.6240234-1.6948853-4.6809082-4.246521-5.7906494-7.1663208c-2.5797119,1.0883789-5.1646729,2.1638794-7.7545166,3.2269897
		c3.2525635,0.583252,6.291626,2.3065186,8.4375,4.8205566c0.7862549,0.9213257,1.480835,2.2091064,0.9354248,3.2906494
		c-0.3426514,0.6792603-1.1152344,1.0668335-1.8747559,1.1123657c-0.7595215,0.0455933-1.5076904-0.2028198-2.1964111-0.5261841
		c-3.1677246-1.4876709-5.4384766-4.7318115-5.751709-8.2174072l0.0330811-0.3109131
		c-1.5924072,0.6522827-3.1846924,1.3049927-4.7834473,1.9404297c-3.7301025,1.4824829-7.5115967,2.8250732-11.3496094,3.9609985
		c3.0045166-0.0161133,6.0098877,0.8983154,8.4777832,2.6135864c0.6566162,0.4562378,1.2913818,0.9844971,1.6768799,1.6851807
		c0.385498,0.7008057,0.4786377,1.6074219,0.059082,2.288269c-0.7000732,1.1362305-2.3598633,1.1254272-3.6408691,0.7507935
		c-3.4255371-1.0015869-6.302002-3.7015381-7.5358887-7.0492554c-2.0095215,0.5736694-4.0366211,1.0799561-6.0805664,1.5177612
		L292.5906982,351.6426392z M305.5693359,426.4888916c8.2028809-8.3736572,19.8095703,14.7788086,19.8095703,14.7788086
		C321.9569092,437.5540161,297.3662109,434.8623047,305.5693359,426.4888916z M329.715332,452.2016602
		c-4.9428711-1.0060425-11.199585-3.5758667-8.2825928-5.6531372
		C324.3497314,444.4711914,329.715332,452.2016602,329.715332,452.2016602z M329.0477295,487.7706909
		c-0.4193115-5.0534668,9.5186768-4.4521484,9.5186768-4.4521484
		C335.432373,484.6547852,329.467041,492.8241577,329.0477295,487.7706909z M339.0144043,499.3800049
		c-7.68396-6.4517212,9.3325195-2.355896,16.4787598-10.4946289
		C355.4931641,488.885376,346.6983643,505.831543,339.0144043,499.3800049z M384.9436035,507.1958008
		c-0.720459-5.6503296-3.4318848-10.9306641-7.5395508-14.8260498c-9.8520508-3.024231-22.3481445,6.7860107-18.4129639-2.0460815
		c2.9870605-6.7044678,12.0457764-2.293335,16.6949463,0.5583496c-0.3543701-0.27771-0.7158203-0.546936-1.0865479-0.8051147
		c-4.4780273-3.1188965-9.7491455-4.7679443-14.8533936-6.5413818c-0.8210449-0.2852783-1.6411133-0.578186-2.4575195-0.8800049
		c-10.2319336,0.4647827-18.621582,13.8253784-17.7807617,4.2320557c0.6271973-7.15625,10.1342773-6.2294312,15.4841309-5.1258545
		c-0.1394043-0.0565796-0.2814941-0.1070557-0.4204102-0.1645508c-2.3358154-0.4989624-4.6843262-0.9530029-7.0612793-1.2041016
		c-2.340332-0.2471924-4.6914062-0.2756958-7.0402832-0.1622314c-10.5141602,1.2432861-24.1462402,8.3554688-21.4571533-0.3140259
		c2.6517334-8.5485229,19.776001-2.3093872,24.6861572-0.3204346c1.2324219,0.0167236,2.4641113,0.0814209,3.6932373,0.206604
		c1.5975342,0.1625366,3.1815186,0.4226074,4.7583008,0.7230835c-2.5025635-1.1906738-4.8841553-2.609436-7.0247803-4.4341431
		c-1.2921143-1.1016235-2.4699707-2.2836914-3.5493164-3.5324097c-9.032959-4.8218384-23.0634766,2.369812-17.4399414-5.4446411
		c4.1494141-5.7657471,11.7230225-0.3007812,15.7927246,3.3824463c-1.4123535-1.9058228-2.6318359-3.9377441-3.6951904-6.0601807
		c-7.4991455-7.2912598-23.4692383-3.3813477-16.0394287-9.75354c5.80896-4.9824829,12.4067383,3.6401367,15.2104492,8.0119019
		c-2.4404297-5.3850098-3.9946289-11.2578735-5.2685547-17.0464478c-2.1962891-3.871582-11.1513672-20.7450562-3.138916-25.2943726
		c8.2746582-4.697998,2.5341797,11.357666,3.2124023,22.9099731c0.8508301,4.0720215,1.7702637,8.1518555,3.0162354,12.1210938
		c-1.5445557-5.1595459-3.473999-14.9984131,3.7833252-16.2146606c9.8952637-1.6585693-4.2646484,8.6289673-2.7113037,19.3475952
		c0,0-0.0213623-0.0529785-0.0585938-0.1483765c0.6162109,1.6854858,1.3023682,3.3457031,2.0854492,4.9692383
		c2.3781738,4.930481,5.6468506,9.539917,9.9515381,12.9532471c-3.5827637-3.4866943-11.2110596-12.0810547-4.9505615-16.8483887
		c7.8060303-5.9443359,0.5841064,8.9382324,6.2178955,17.7908325c0.1936035,0.1365356,0.385376,0.2753906,0.5828857,0.4071045
		c2.0570068,1.3720703,4.2650146,2.4522705,6.5393066,3.3912354c0.0374756,0.0080566,0.0749512,0.0152588,0.1124268,0.0233154
		c0.0617676,0.0131836,0.1071777,0.0444946,0.1452637,0.081543c2.24646,0.9150391,4.5529785,1.6986084,6.8427734,2.4880371
		c-4.0540771-2.6734619-13.5224609-9.8763428-8.1459961-15.8030396c6.5341797-7.2030029,2.2775879,8.4038696,9.166748,16.15625
		c0.1030273,0.0358887,0.2067871,0.0712891,0.3098145,0.1072388c2.4726562,0.8646851,4.9576416,1.7906494,7.3256836,2.9321289
		c-4.4396973-3.3154907-10.6029053-9.277771-6.0305176-14.3179321c6.4542236-7.1148071,2.3813477,8.0245972,8.9202881,15.8676758
		c1.4439697,0.8674316,2.8170166,1.8519287,4.0838623,2.9953003c4.4407959,4.0076904,7.357666,9.604126,8.1140137,15.5353394
		C385.557251,507.4655762,384.9906006,507.5635376,384.9436035,507.1958008z M400.9250488,438.1365967
		c9.836792-6.1053467,15.4125977,18.9502563,15.4125977,18.9502563
		C412.0578613,446.9777222,391.0881348,444.2418823,400.9250488,438.1365967z M408.1130371,466.0687866
		c-0.4697266-2.1838989-6.692627-5.9173584-2.7592773-6.387085
		C409.2871094,459.2119141,408.1130371,466.0687866,408.1130371,466.0687866z M438.9335938,480.1734619
		c-4.2268066,9.0993652-19.3730469-2.5245361-19.3730469-2.5245361
		C429.4819336,481.9934082,443.1604004,471.0738525,438.9335938,480.1734619z M432.534668,465.4349365
		c0,0,8.7471924-4.755127,10.5083008,0C444.8041992,470.1900635,435.9395752,465.3175049,432.534668,465.4349365z
		 M429.5021973,463.4445801c-2.1757812,0.892334-4.2932129,1.9142456-6.3083496,3.1296997
		c-2.046875,1.2344971-3.9818115,2.6408081-5.8862305,4.0823975c-0.1013184,0.1109009-0.2087402,0.2169189-0.3110352,0.3271484
		c4.378418-3.2661743,12.59729-8.133606,16.1975098-1.9171143c4.8259277,8.3334351-8.434082-0.2142334-17.8991699,3.6997681
		c-0.6115723,0.6192627-1.2304688,1.2320557-1.8532715,1.8383179c-3.8721924,3.7689819-7.9481201,7.4959106-10.6829834,12.2182617
		c-0.2263184,0.3909302-0.4398193,0.7879639-0.6429443,1.1896362c3.0029297-4.5527954,9.3395996-12.3864136,14.8857422-7.5789795
		c7.3065186,6.3330078-8.1689453,2.7409668-15.8117676,9.6544189c-2.0704346,5.2689209-2.2893066,11.2006836-0.5480957,16.6240845
		c0.1132812,0.3529663-0.4414062,0.5043335-0.5541992,0.1528931c-1.8278809-5.6930542-1.5567627-11.99823,0.7678223-17.5098267
		c0.663208-1.5725098,1.4897461-3.0459595,2.4301758-4.4434814c2.6000977-9.8747559-7.503418-21.8626709,1.3574219-18.1525269
		c6.2770996,2.6282959,3.220459,10.6401978,0.6035156,15.5244751c1.661377-2.0372925,3.5200195-3.928833,5.3935547-5.7597656
		c0.0780029-0.0761108,0.1571045-0.1522217,0.2352295-0.2283936c2.9556885-9.940918-7.5123291-22.2744141,1.458252-18.5182495
		c7.3811035,3.0905762,1.8562012,13.6265869-0.6832275,17.7658081c1.739502-1.6851807,3.4968262-3.3721924,5.144043-5.152771
		c0.0187988-0.0496216,0.0466309-0.097229,0.0970459-0.135437c0.0303955-0.0231323,0.0614014-0.0455933,0.0919189-0.0686646
		c1.6623535-1.8140869,3.2045898-3.7280884,4.4865723-5.8424072c0.1231689-0.2030029,0.2380371-0.4100342,0.3554688-0.6157227
		c1.3525391-10.4057617-11.4945068-20.8267822-1.9052734-18.7495117c7.6906738,1.6658325,4.4221191,12.6826172,2.6540527,17.3589478
		c2.453125-4.9157104,3.4609375-10.4758301,3.5262451-15.9495239c0.0216064-1.8023682-0.0604248-3.5969238-0.2164307-5.3847656
		c0.0068359,0.1021729,0.0098877,0.1592407,0.0098877,0.1592407c-3.1341553-10.3671875-20.3189697-13.6865845-10.6530762-16.3765869
		c6.8656006-1.9108276,9.352417,7.1543579,10.2172852,12.567688c-0.5567627-3.9475708-1.4091797-7.861084-2.3238525-11.7404785
		c-4.2800293-10.7515869-16.2822266-22.8629761-6.7963867-22.1132202c9.1853027,0.7261353,8.2224121,19.8044434,7.873291,24.2418823
		c1.2984619,5.7830811,2.3789062,11.7612915,2.4498291,17.6730957c0.6873779-5.1478882,3.0106201-15.7537231,10.3834229-13.7015991
		c9.4296875,2.6242065-6.692749,5.8486328-10.3964844,15.6304321c-0.0639648,2.3729248-0.3076172,4.7302246-0.779541,7.0548706
		c2.1258545-5.0604858,6.6706543-13.2194824,12.8720703-9.7548218c8.4047852,4.6958618-7.3510742,4.1259766-13.4904785,12.3206787
		c-0.4484863,1.5884399-1.0146484,3.1582031-1.7185059,4.7034912c-1.1657715,2.5598145-2.722168,4.8539429-4.484375,6.9927368
		c1.3007812-0.9401855,2.6254883-1.8468628,4.0037842-2.6709595c1.0601807-0.6340942,2.1485596-1.2145386,3.2579346-1.7518311
		c3.6048584-3.881897,16.4729004-16.7886353,22.4967041-10.1687012
		C454.9140625,460.7828369,439.5527344,460.1161499,429.5021973,463.4445801z M418.3864746,438.1953735
		c3.6984863-1.9961548,6.4108887,5.987915,6.4108887,5.987915
		C422.737793,441.5422363,414.6879883,440.1913452,418.3864746,438.1953735z"/>
</g>
</svg>
